<svg xmlns="http://www.w3.org/2000/svg" width="192" height="196" viewBox="0 0 192 196" role="img" aria-label="Practice-FR">
  <path fill="currentColor" d="M 39.17 178.83 C 38.79 178.46 39.01 177.26 39.50 177.00 C 39.90 176.79 40.00 176.48 40.00 175.50 C 40.00 174.52 40.10 174.21 40.50 174.00 C 40.93 173.77 41.00 173.48 41.00 172.00 C 41.00 170.52 41.07 170.23 41.50 170.00 C 41.95 169.76 42.00 169.48 42.00 167.00 C 42.00 164.52 42.05 164.24 42.50 164.00 C 42.97 163.75 43.00 163.48 43.00 159.00 C 43.00 154.52 42.97 154.25 42.50 154.00 C 42.05 153.76 42.00 153.48 42.00 151.00 C 42.00 148.52 41.95 148.24 41.50 148.00 C 41.10 147.79 41.00 147.48 41.00 146.50 C 41.00 145.52 40.90 145.21 40.50 145.00 C 40.10 144.79 40.00 144.48 40.00 143.50 C 40.00 142.52 39.90 142.21 39.50 142.00 C 39.17 141.83 39.00 141.48 39.00 141.00 C 39.00 140.52 38.83 140.17 38.50 140.00 C 38.10 139.79 38.00 139.48 38.00 138.50 C 38.00 137.52 37.90 137.21 37.50 137.00 C 37.17 136.83 37.00 136.48 37.00 136.00 C 37.00 135.52 36.83 135.17 36.50 135.00 C 36.19 134.83 36.00 134.47 36.00 134.05 C 36.00 133.58 35.70 133.11 35.00 132.50 C 34.37 131.95 34.00 131.41 34.00 131.04 C 34.00 130.64 33.50 129.96 32.50 129.00 C 31.50 128.04 31.00 127.36 31.00 126.96 C 31.00 126.59 30.63 126.05 30.00 125.50 C 29.30 124.89 29.00 124.42 29.00 123.95 C 29.00 123.53 28.81 123.17 28.50 123.00 C 28.17 122.83 28.00 122.48 28.00 122.00 C 28.00 121.52 27.83 121.17 27.50 121.00 C 27.19 120.83 27.00 120.47 27.00 120.05 C 27.00 119.58 26.70 119.11 26.00 118.50 C 25.11 117.71 25.00 117.51 25.00 116.45 C 25.00 115.52 24.89 115.21 24.50 115.00 C 24.17 114.83 24.00 114.48 24.00 114.00 C 24.00 113.52 23.83 113.17 23.50 113.00 C 23.17 112.83 23.00 112.48 23.00 112.00 C 23.00 111.52 22.83 111.17 22.50 111.00 C 22.07 110.77 22.00 110.48 22.00 109.00 C 22.00 107.52 21.93 107.23 21.50 107.00 C 21.10 106.79 21.00 106.48 21.00 105.50 C 21.00 104.52 20.90 104.21 20.50 104.00 C 20.07 103.77 20.00 103.48 20.00 102.00 C 20.00 100.52 19.93 100.23 19.50 100.00 C 19.04 99.75 19.00 99.48 19.00 96.50 C 19.00 93.52 18.96 93.25 18.50 93.00 C 18.02 92.74 18.00 92.48 18.00 86.00 C 18.00 79.52 18.02 79.26 18.50 79.00 C 18.97 78.75 19.00 78.48 19.00 75.00 C 19.00 71.52 19.03 71.25 19.50 71.00 C 19.93 70.77 20.00 70.48 20.00 69.00 C 20.00 67.52 20.07 67.23 20.50 67.00 C 20.90 66.79 21.00 66.48 21.00 65.50 C 21.00 64.52 21.10 64.21 21.50 64.00 C 21.90 63.79 22.00 63.48 22.00 62.50 C 22.00 61.52 22.10 61.21 22.50 61.00 C 22.83 60.83 23.00 60.48 23.00 60.00 C 23.00 59.52 23.17 59.17 23.50 59.00 C 23.90 58.79 24.00 58.48 24.00 57.50 C 24.00 56.52 24.10 56.21 24.50 56.00 C 24.81 55.83 25.00 55.47 25.00 55.05 C 25.00 54.58 25.30 54.11 26.00 53.50 C 26.70 52.89 27.00 52.42 27.00 51.95 C 27.00 51.53 27.19 51.17 27.50 51.00 C 27.81 50.83 28.00 50.47 28.00 50.05 C 28.00 49.58 28.30 49.11 29.00 48.50 C 29.66 47.92 30.00 47.41 30.00 47.00 C 30.00 46.59 30.34 46.08 31.00 45.50 C 31.60 44.97 32.00 44.40 32.00 44.06 C 32.00 43.29 44.26 31.00 45.02 31.00 C 45.34 31.00 46.29 30.24 47.50 29.00 C 48.93 27.53 49.63 27.00 50.09 27.00 C 50.48 27.00 50.84 26.80 51.00 26.50 C 51.17 26.17 51.52 26.00 52.00 26.00 C 52.48 26.00 52.83 25.83 53.00 25.50 C 53.17 25.19 53.53 25.00 53.95 25.00 C 54.42 25.00 54.89 24.70 55.50 24.00 C 56.11 23.30 56.58 23.00 57.05 23.00 C 57.47 23.00 57.83 22.81 58.00 22.50 C 58.17 22.17 58.52 22.00 59.00 22.00 C 59.48 22.00 59.83 21.83 60.00 21.50 C 60.21 21.10 60.52 21.00 61.50 21.00 C 62.48 21.00 62.79 20.90 63.00 20.50 C 63.17 20.17 63.52 20.00 64.00 20.00 C 64.48 20.00 64.83 19.83 65.00 19.50 C 65.21 19.10 65.52 19.00 66.50 19.00 C 67.48 19.00 67.79 18.90 68.00 18.50 C 68.23 18.07 68.52 18.00 70.00 18.00 C 71.48 18.00 71.77 17.93 72.00 17.50 C 72.23 17.07 72.52 17.00 74.00 17.00 C 75.48 17.00 75.77 16.93 76.00 16.50 C 76.26 16.01 76.52 16.00 87.50 16.00 C 98.48 16.00 98.74 16.01 99.00 16.50 C 99.23 16.93 99.52 17.00 101.00 17.00 C 102.48 17.00 102.77 17.07 103.00 17.50 C 103.21 17.90 103.52 18.00 104.50 18.00 C 105.48 18.00 105.79 18.10 106.00 18.50 C 106.21 18.90 106.52 19.00 107.50 19.00 C 108.48 19.00 108.79 19.10 109.00 19.50 C 109.17 19.83 109.52 20.00 110.00 20.00 C 110.48 20.00 110.83 20.17 111.00 20.50 C 111.17 20.83 111.52 21.00 112.00 21.00 C 112.48 21.00 112.83 21.17 113.00 21.50 C 113.17 21.81 113.53 22.00 113.95 22.00 C 114.42 22.00 114.89 22.30 115.50 23.00 C 116.05 23.63 116.59 24.00 116.96 24.00 C 117.36 24.00 118.04 24.50 119.00 25.50 C 119.88 26.41 120.65 27.00 120.98 27.00 C 121.33 27.00 122.63 28.12 124.75 30.25 C 126.88 32.37 128.00 33.67 128.00 34.02 C 128.00 34.35 128.59 35.12 129.50 36.00 C 130.50 36.96 131.00 37.64 131.00 38.04 C 131.00 38.41 131.37 38.95 132.00 39.50 C 132.70 40.11 133.00 40.58 133.00 41.05 C 133.00 41.47 133.19 41.83 133.50 42.00 C 133.83 42.17 134.00 42.52 134.00 43.00 C 134.00 43.48 134.17 43.83 134.50 44.00 C 134.83 44.17 135.00 44.52 135.00 45.00 C 135.00 45.48 135.17 45.83 135.50 46.00 C 135.93 46.23 136.00 46.52 136.00 48.00 C 136.00 49.48 136.07 49.77 136.50 50.00 C 136.93 50.23 137.00 50.52 137.00 52.00 C 137.00 53.48 137.07 53.77 137.50 54.00 C 137.95 54.24 138.00 54.52 138.00 56.90 C 138.00 59.48 137.98 59.55 137.27 60.27 C 136.68 60.86 136.32 61.00 135.40 61.00 C 134.52 61.00 134.21 60.89 134.00 60.50 C 133.79 60.11 133.48 60.00 132.55 60.00 C 131.49 60.00 131.29 60.11 130.50 61.00 C 129.50 62.14 128.45 62.35 128.00 61.50 C 127.61 60.78 125.39 60.78 125.00 61.50 C 124.76 61.95 124.48 62.00 122.00 62.00 C 119.52 62.00 119.24 62.05 119.00 62.50 C 118.76 62.94 118.48 63.00 116.55 63.00 L 114.38 63.00 L 113.50 64.00 C 112.48 65.16 111.53 65.32 110.93 64.44 L 110.55 63.88 L 109.50 65.00 L 108.45 66.12 L 108.07 65.56 C 107.58 64.83 106.38 64.80 106.00 65.50 C 105.79 65.90 105.48 66.00 104.50 66.00 C 103.52 66.00 103.21 66.10 103.00 66.50 C 102.83 66.82 102.48 67.00 102.02 67.00 C 101.57 67.00 101.17 67.20 100.92 67.56 L 100.52 68.12 L 100.02 67.50 C 99.45 66.77 99.08 66.99 98.96 68.12 C 98.89 68.76 98.76 68.89 98.08 68.95 C 97.48 69.01 97.21 68.90 97.00 68.50 C 96.61 67.76 96.15 68.00 96.00 69.02 C 95.89 69.77 95.77 69.88 95.08 69.95 C 94.48 70.01 94.21 69.90 94.00 69.50 C 93.61 68.76 93.15 69.00 93.00 70.02 L 92.88 70.88 L 90.57 70.95 C 88.57 71.01 88.22 71.09 88.00 71.51 C 87.83 71.83 87.47 72.00 87.00 72.00 C 86.52 72.00 86.17 72.17 86.00 72.50 C 85.83 72.83 85.48 73.00 85.00 73.00 C 84.52 73.00 84.17 73.17 84.00 73.50 C 83.79 73.89 83.48 74.00 82.55 74.00 C 81.49 74.00 81.29 74.11 80.50 75.00 C 79.89 75.70 79.42 76.00 78.95 76.00 C 78.53 76.00 78.17 76.19 78.00 76.50 C 77.83 76.83 77.48 77.00 77.00 77.00 C 76.52 77.00 76.17 77.17 76.00 77.50 C 75.84 77.80 75.48 78.00 75.08 78.00 C 74.64 78.00 74.13 78.32 73.52 78.98 C 72.94 79.60 72.35 79.99 71.87 80.04 C 71.23 80.11 71.11 80.25 71.00 81.00 C 70.88 81.85 70.84 81.88 69.65 81.95 C 68.49 82.03 68.33 82.13 66.51 83.99 C 65.13 85.40 64.38 85.98 63.85 86.04 C 63.23 86.11 63.11 86.25 63.00 87.00 C 62.89 87.74 62.77 87.89 62.16 87.96 C 61.26 88.06 59.00 90.24 59.00 91.01 C 59.00 91.35 58.26 92.26 57.00 93.50 C 55.53 94.93 55.00 95.63 55.00 96.09 C 55.00 96.48 54.80 96.84 54.50 97.00 C 54.17 97.17 54.00 97.52 54.00 98.00 C 54.00 98.48 53.83 98.83 53.50 99.00 C 53.17 99.17 53.00 99.52 53.00 100.00 C 53.00 100.48 52.83 100.83 52.50 101.00 C 52.10 101.21 52.00 101.52 52.00 102.50 C 52.00 103.48 51.90 103.79 51.50 104.00 C 51.05 104.24 51.00 104.52 51.00 106.98 C 51.00 109.50 51.04 109.72 51.56 110.09 L 52.12 110.50 L 51.56 110.91 C 50.79 111.47 50.74 113.59 51.50 114.00 C 51.83 114.17 52.00 114.52 52.00 115.00 C 52.00 115.48 52.17 115.83 52.50 116.00 C 52.79 116.16 53.00 116.52 53.00 116.89 C 53.00 117.77 57.23 122.00 58.11 122.00 C 58.48 122.00 58.84 122.21 59.00 122.50 C 59.17 122.83 59.52 123.00 60.00 123.00 C 60.48 123.00 60.83 123.17 61.00 123.50 C 61.17 123.83 61.52 124.00 62.00 124.00 C 62.48 124.00 62.83 124.17 63.00 124.50 C 63.21 124.90 63.52 125.00 64.50 125.00 C 65.48 125.00 65.79 125.10 66.00 125.50 C 66.24 125.94 66.52 126.00 68.50 126.00 C 70.48 126.00 70.76 126.06 71.00 126.50 C 71.21 126.90 71.52 127.00 72.50 127.00 C 73.48 127.00 73.79 126.90 74.00 126.50 C 74.25 126.04 74.52 126.00 77.50 126.00 C 80.48 126.00 80.75 126.04 81.00 126.50 C 81.17 126.83 81.52 127.00 82.00 127.00 C 82.48 127.00 82.83 127.17 83.00 127.50 C 83.25 127.97 83.52 128.00 87.00 128.00 C 90.48 128.00 90.75 128.03 91.00 128.50 C 91.21 128.89 91.52 129.00 92.42 129.00 C 93.44 129.00 93.68 129.11 94.48 129.98 C 95.06 130.60 95.65 130.99 96.13 131.04 C 96.77 131.11 96.89 131.24 96.95 131.94 C 97.00 132.43 97.22 132.85 97.52 133.01 C 97.95 133.24 98.00 133.55 98.00 136.00 C 98.00 138.48 97.95 138.76 97.50 139.00 C 97.21 139.16 97.00 139.52 97.00 139.89 C 97.00 140.70 92.78 145.00 91.98 145.00 C 91.65 145.00 90.88 145.59 90.00 146.50 C 89.04 147.50 88.36 148.00 87.96 148.00 C 87.59 148.00 87.05 148.37 86.50 149.00 C 85.89 149.70 85.42 150.00 84.95 150.00 C 84.53 150.00 84.17 150.19 84.00 150.50 C 83.83 150.81 83.47 151.00 83.05 151.00 C 82.58 151.00 82.11 151.30 81.50 152.00 C 80.92 152.66 80.41 153.00 80.00 153.00 C 79.59 153.00 79.08 153.34 78.50 154.00 C 77.71 154.89 77.51 155.00 76.45 155.00 C 75.52 155.00 75.21 155.11 75.00 155.50 C 74.83 155.81 74.47 156.00 74.05 156.00 C 73.58 156.00 73.11 156.30 72.50 157.00 C 71.92 157.66 71.41 158.00 71.00 158.00 C 70.59 158.00 70.08 158.34 69.50 159.00 C 68.89 159.70 68.42 160.00 67.95 160.00 C 67.53 160.00 67.17 160.19 67.00 160.50 C 66.83 160.81 66.47 161.00 66.05 161.00 C 65.58 161.00 65.11 161.30 64.50 162.00 C 63.92 162.66 63.41 163.00 63.00 163.00 C 62.59 163.00 62.08 163.34 61.50 164.00 C 60.92 164.66 60.41 165.00 60.00 165.00 C 59.59 165.00 59.08 165.34 58.50 166.00 C 57.95 166.63 57.41 167.00 57.04 167.00 C 56.64 167.00 55.96 167.50 55.00 168.50 C 54.09 169.45 53.35 170.00 53.00 170.00 C 52.65 170.00 51.91 170.55 51.00 171.50 C 50.09 172.45 49.35 173.00 49.00 173.00 C 48.65 173.00 47.91 173.55 47.00 174.50 C 46.04 175.50 45.36 176.00 44.96 176.00 C 44.59 176.00 44.05 176.37 43.50 177.00 C 42.89 177.70 42.42 178.00 41.95 178.00 C 41.53 178.00 41.17 178.19 41.00 178.50 C 40.74 178.99 39.54 179.21 39.17 178.83 Z M 61.13 171.75 C 60.88 171.36 63.39 169.00 64.05 169.00 C 64.41 169.00 64.96 168.61 65.50 168.00 C 66.08 167.34 66.59 167.00 67.00 167.00 C 67.41 167.00 67.92 166.66 68.50 166.00 C 69.11 165.30 69.58 165.00 70.05 165.00 C 70.47 165.00 70.83 164.81 71.00 164.50 C 71.17 164.17 71.52 164.00 72.00 164.00 C 72.48 164.00 72.83 163.83 73.00 163.50 C 73.17 163.17 73.52 163.00 74.00 163.00 C 74.48 163.00 74.83 162.83 75.00 162.50 C 75.17 162.17 75.52 162.00 76.00 162.00 C 76.48 162.00 76.83 161.83 77.00 161.50 C 77.17 161.17 77.52 161.00 78.00 161.00 C 78.48 161.00 78.83 160.83 79.00 160.50 C 79.17 160.19 79.53 160.00 79.95 160.00 C 80.42 160.00 80.89 159.70 81.50 159.00 C 82.11 158.30 82.58 158.00 83.05 158.00 C 83.47 158.00 83.83 157.81 84.00 157.50 C 84.17 157.19 84.53 157.00 84.95 157.00 C 85.42 157.00 85.89 156.70 86.50 156.00 C 87.11 155.30 87.58 155.00 88.05 155.00 C 88.47 155.00 88.83 154.81 89.00 154.50 C 89.17 154.19 89.53 154.00 89.95 154.00 C 90.42 154.00 90.89 153.70 91.50 153.00 C 92.11 152.30 92.58 152.00 93.05 152.00 C 93.47 152.00 93.83 151.81 94.00 151.50 C 94.17 151.19 94.53 151.00 94.95 151.00 C 95.42 151.00 95.89 150.70 96.50 150.00 C 97.05 149.37 97.59 149.00 97.96 149.00 C 98.36 149.00 99.04 148.50 100.00 147.50 C 100.88 146.59 101.65 146.00 101.98 146.00 C 102.79 146.00 111.00 137.71 111.00 136.89 C 111.00 136.52 111.21 136.16 111.50 136.00 C 111.90 135.79 112.00 135.48 112.00 134.50 C 112.00 133.52 112.10 133.21 112.50 133.00 C 112.83 132.83 113.00 132.48 113.00 132.00 C 113.00 131.52 112.83 131.17 112.50 131.00 C 112.11 130.79 112.00 130.48 112.00 129.61 C 112.00 128.55 111.90 128.38 110.26 126.74 C 109.03 125.52 108.33 125.00 107.89 125.00 C 107.52 125.00 107.16 124.80 107.00 124.50 C 106.83 124.17 106.48 124.00 106.00 124.00 C 105.52 124.00 105.17 123.83 105.00 123.50 C 104.83 123.17 104.48 123.00 104.00 123.00 C 103.52 123.00 103.17 122.83 103.00 122.50 C 102.79 122.10 102.48 122.00 101.50 122.00 C 100.52 122.00 100.21 121.90 100.00 121.50 C 99.77 121.07 99.48 121.00 98.00 121.00 C 96.52 121.00 96.23 120.93 96.00 120.50 C 95.77 120.07 95.48 120.00 94.00 120.00 C 92.52 120.00 92.23 119.93 92.00 119.50 C 91.79 119.10 91.48 119.00 90.50 119.00 C 89.52 119.00 89.21 118.90 89.00 118.50 C 88.79 118.10 88.48 118.00 87.50 118.00 C 86.52 118.00 86.21 117.90 86.00 117.50 C 85.79 117.10 85.48 117.00 84.50 117.00 C 83.52 117.00 83.21 116.90 83.00 116.50 C 82.83 116.19 82.47 116.00 82.05 116.00 C 81.58 116.00 81.11 115.70 80.50 115.00 C 79.95 114.38 79.41 114.00 79.04 114.00 C 78.26 114.00 77.00 112.70 77.00 111.90 C 77.00 111.52 76.80 111.16 76.50 111.00 C 76.17 110.83 76.00 110.48 76.00 110.00 C 76.00 109.52 75.83 109.17 75.50 109.00 C 75.07 108.77 75.00 108.48 75.00 107.00 C 75.00 105.52 75.07 105.23 75.50 105.00 C 75.90 104.79 76.00 104.48 76.00 103.50 C 76.00 102.52 76.10 102.21 76.50 102.00 C 76.81 101.83 77.00 101.47 77.00 101.05 C 77.00 100.58 77.30 100.11 78.00 99.50 C 78.61 98.96 79.00 98.40 79.00 98.06 C 79.00 97.30 83.27 93.00 84.01 93.00 C 84.34 93.00 85.28 92.25 86.50 91.00 C 87.84 89.64 88.64 89.00 89.04 89.00 C 89.41 89.00 89.95 88.62 90.50 88.00 C 91.08 87.34 91.59 87.00 92.00 87.00 C 92.41 87.00 92.92 86.66 93.50 86.00 C 94.11 85.30 94.58 85.00 95.05 85.00 C 95.47 85.00 95.83 84.81 96.00 84.50 C 96.17 84.17 96.52 84.00 97.00 84.00 C 97.48 84.00 97.83 83.83 98.00 83.50 C 98.17 83.17 98.52 83.00 99.00 83.00 C 99.48 83.00 99.83 82.83 100.00 82.50 C 100.17 82.17 100.52 82.00 101.00 82.00 C 101.48 82.00 101.83 81.83 102.00 81.50 C 102.17 81.17 102.52 81.00 103.00 81.00 C 103.48 81.00 103.83 80.83 104.00 80.50 C 104.21 80.10 104.52 80.00 105.50 80.00 C 106.48 80.00 106.79 79.90 107.00 79.50 C 107.17 79.17 107.52 79.00 108.00 79.00 C 108.48 79.00 108.83 78.83 109.00 78.50 C 109.21 78.10 109.52 78.00 110.50 78.00 C 111.48 78.00 111.79 77.90 112.00 77.50 C 112.17 77.17 112.52 77.00 113.00 77.00 C 113.48 77.00 113.83 76.83 114.00 76.50 C 114.23 76.07 114.52 76.00 116.00 76.00 C 117.48 76.00 117.77 75.93 118.00 75.50 C 118.21 75.10 118.52 75.00 119.50 75.00 C 120.48 75.00 120.79 74.90 121.00 74.50 C 121.23 74.07 121.52 74.00 123.00 74.00 C 124.48 74.00 124.77 73.93 125.00 73.50 C 125.23 73.07 125.52 73.00 127.00 73.00 C 128.48 73.00 128.77 72.93 129.00 72.50 C 129.23 72.07 129.52 72.00 131.00 72.00 C 132.48 72.00 132.77 71.93 133.00 71.50 C 133.24 71.05 133.52 71.00 136.00 71.00 C 138.48 71.00 138.76 70.95 139.00 70.50 C 139.26 70.01 139.52 70.00 150.00 70.00 C 160.48 70.00 160.74 70.01 161.00 70.50 C 161.21 70.90 161.52 71.00 162.50 71.00 C 163.48 71.00 163.79 71.10 164.00 71.50 C 164.17 71.83 164.52 72.00 165.00 72.00 C 165.48 72.00 165.83 72.17 166.00 72.50 C 166.17 72.81 166.53 73.00 166.95 73.00 C 167.42 73.00 167.89 73.30 168.50 74.00 C 169.04 74.61 169.60 75.00 169.95 75.00 C 170.73 75.00 174.00 78.27 174.00 79.05 C 174.00 79.40 174.39 79.96 175.00 80.50 C 175.70 81.11 176.00 81.58 176.00 82.05 C 176.00 82.47 176.19 82.83 176.50 83.00 C 176.90 83.21 177.00 83.52 177.00 84.50 C 177.00 85.48 177.10 85.79 177.50 86.00 C 177.94 86.24 178.00 86.52 178.00 88.50 C 178.00 90.48 178.06 90.76 178.50 91.00 C 178.98 91.25 179.00 91.52 179.00 96.50 C 179.00 101.48 178.98 101.75 178.50 102.00 C 178.05 102.24 178.00 102.52 178.00 105.00 C 178.00 107.48 177.95 107.76 177.50 108.00 C 177.10 108.21 177.00 108.52 177.00 109.50 C 177.00 110.48 176.90 110.79 176.50 111.00 C 176.10 111.21 176.00 111.52 176.00 112.50 C 176.00 113.48 175.90 113.79 175.50 114.00 C 175.17 114.17 175.00 114.52 175.00 115.00 C 175.00 115.48 174.83 115.83 174.50 116.00 C 174.17 116.17 174.00 116.52 174.00 117.00 C 174.00 117.48 173.83 117.83 173.50 118.00 C 173.17 118.17 173.00 118.52 173.00 119.00 C 173.00 119.48 172.83 119.83 172.50 120.00 C 172.17 120.17 172.00 120.52 172.00 121.00 C 172.00 121.48 171.83 121.83 171.50 122.00 C 171.19 122.17 171.00 122.53 171.00 122.95 C 171.00 123.42 170.70 123.89 170.00 124.50 C 169.37 125.05 169.00 125.59 169.00 125.96 C 169.00 126.36 168.50 127.04 167.50 128.00 C 166.59 128.87 166.00 129.65 166.00 129.98 C 166.00 130.71 154.71 142.00 153.98 142.00 C 153.65 142.00 152.87 142.59 152.00 143.50 C 151.04 144.50 150.36 145.00 149.96 145.00 C 149.59 145.00 149.05 145.37 148.50 146.00 C 147.89 146.70 147.42 147.00 146.95 147.00 C 146.53 147.00 146.17 147.19 146.00 147.50 C 145.83 147.81 145.47 148.00 145.05 148.00 C 144.58 148.00 144.11 148.30 143.50 149.00 C 142.89 149.70 142.42 150.00 141.95 150.00 C 141.53 150.00 141.17 150.19 141.00 150.50 C 140.83 150.83 140.48 151.00 140.00 151.00 C 139.52 151.00 139.17 151.17 139.00 151.50 C 138.83 151.83 138.48 152.00 138.00 152.00 C 137.52 152.00 137.17 152.17 137.00 152.50 C 136.83 152.83 136.48 153.00 136.00 153.00 C 135.52 153.00 135.17 153.17 135.00 153.50 C 134.79 153.90 134.48 154.00 133.50 154.00 C 132.52 154.00 132.21 154.10 132.00 154.50 C 131.83 154.83 131.48 155.00 131.00 155.00 C 130.52 155.00 130.17 155.17 130.00 155.50 C 129.79 155.90 129.48 156.00 128.50 156.00 C 127.52 156.00 127.21 156.10 127.00 156.50 C 126.79 156.90 126.48 157.00 125.50 157.00 C 124.52 157.00 124.21 157.10 124.00 157.50 C 123.79 157.90 123.48 158.00 122.50 158.00 C 121.52 158.00 121.21 158.10 121.00 158.50 C 120.77 158.93 120.48 159.00 119.00 159.00 C 117.52 159.00 117.23 159.07 117.00 159.50 C 116.76 159.94 116.48 160.00 114.50 160.00 C 112.52 160.00 112.24 160.06 112.00 160.50 C 111.77 160.93 111.48 161.00 110.00 161.00 C 108.52 161.00 108.23 161.07 108.00 161.50 C 107.76 161.94 107.48 162.00 105.50 162.00 C 103.52 162.00 103.24 162.06 103.00 162.50 C 102.76 162.94 102.48 163.00 100.50 163.00 C 98.52 163.00 98.24 163.06 98.00 163.50 C 97.76 163.94 97.48 164.00 95.50 164.00 C 93.52 164.00 93.24 164.06 93.00 164.50 C 92.76 164.95 92.48 165.00 90.00 165.00 C 87.52 165.00 87.24 165.05 87.00 165.50 C 86.77 165.93 86.48 166.00 85.00 166.00 C 83.52 166.00 83.23 166.07 83.00 166.50 C 82.79 166.90 82.48 167.00 81.50 167.00 C 80.52 167.00 80.21 167.10 80.00 167.50 C 79.76 167.94 79.48 168.00 77.50 168.00 C 75.52 168.00 75.24 168.06 75.00 168.50 C 74.79 168.90 74.48 169.00 73.50 169.00 C 72.52 169.00 72.21 169.10 72.00 169.50 C 71.77 169.93 71.48 170.00 70.00 170.00 C 68.52 170.00 68.23 170.07 68.00 170.50 C 67.77 170.93 67.48 171.00 66.00 171.00 C 64.52 171.00 64.23 171.07 64.00 171.50 C 63.79 171.90 63.48 172.00 62.51 172.00 C 61.83 172.00 61.21 171.89 61.13 171.75 Z M 156.00 59.50 C 155.77 59.07 155.48 59.00 154.00 59.00 C 152.52 59.00 152.23 58.93 152.00 58.50 C 151.84 58.20 151.48 58.00 151.10 58.00 C 150.24 58.00 148.00 55.76 148.00 54.90 C 148.00 54.52 147.80 54.16 147.50 54.00 C 147.17 53.83 147.00 53.48 147.00 53.00 C 147.00 52.52 146.83 52.17 146.50 52.00 C 146.03 51.75 146.00 51.48 146.00 47.50 C 146.00 43.52 146.03 43.25 146.50 43.00 C 146.80 42.84 147.00 42.48 147.00 42.11 C 147.00 41.23 150.23 38.00 151.11 38.00 C 151.48 38.00 151.84 37.80 152.00 37.50 C 152.17 37.17 152.52 37.00 153.00 37.00 C 153.48 37.00 153.83 36.83 154.00 36.50 C 154.24 36.05 154.52 36.00 157.00 36.00 C 159.48 36.00 159.76 36.05 160.00 36.50 C 160.21 36.89 160.52 37.00 161.39 37.00 C 162.47 37.00 162.60 37.08 164.76 39.24 C 166.38 40.87 167.00 41.66 167.00 42.11 C 167.00 42.48 167.21 42.84 167.50 43.00 C 167.83 43.17 168.00 43.52 168.00 44.00 C 168.00 44.48 168.17 44.83 168.50 45.00 C 168.94 45.24 169.00 45.52 169.00 47.50 C 169.00 49.48 168.94 49.76 168.50 50.00 C 168.10 50.21 168.00 50.52 168.00 51.50 C 168.00 52.48 167.90 52.79 167.50 53.00 C 167.20 53.16 167.00 53.52 167.00 53.89 C 167.00 54.77 163.77 58.00 162.89 58.00 C 162.52 58.00 162.16 58.20 162.00 58.50 C 161.77 58.93 161.48 59.00 160.00 59.00 C 158.52 59.00 158.23 59.07 158.00 59.50 C 157.83 59.83 157.48 60.00 157.00 60.00 C 156.52 60.00 156.17 59.83 156.00 59.50 Z"/>
</svg>
